# xmcd
#
# Track frame offsets: 
#        150
#        14489
#        19988
#        34014
#        41016
#        46465
#        60063
#        68285
#        77020
#        83750
#        90470
#        95747
#        102362
#        108617
#        115014
#        120846
#        131199
#        137243
#        142973
#        149395
#        152080
#        155513
#        158494
#        160850
#        163955
#        167877
#        172923
#        179943
#        184464
#        191674
#        199141
#        208988
#        216823
#        224075
#        231381
#        243050
#        247679
#        254011
#        262668
#        269545
#
# Disc length: 3698 seconds
#
# Revision: 5
# Processed by: cddbd v1.5.2PL0 Copyright (c) Steve Scherf et al.
# Submitted via: ExactAudioCopy v0.99pb5
#
DISCID=400e7028
DTITLE=Gabriel Tacchino - Poulenc - L'oeuvre pour piano [CD4]
DYEAR=2007
DGENRE=Classical
TTITLE0=Huit nocturnes, FP.56 - N°1 en ut majeur
TTITLE1=Huit nocturnes, FP.56 - N°2 en la majeur ''Bal des jeunes fill
TTITLE1=es''
TTITLE2=Huit nocturnes, FP.56 - N°3 en fa majeur ''Les cloches de Mali
TTITLE2=nes''
TTITLE3=Huit nocturnes, FP.56 - N°4 en ut mineur
TTITLE4=Huit nocturnes, FP.56 - N°5 en ré mineur
TTITLE5=Huit nocturnes, FP.56 - N°6 en sol majeur
TTITLE6=Huit nocturnes, FP.56 - N°7 en mi bémol majeur
TTITLE7=Huit nocturnes, FP.56 - N°8 en sol majeur ''Pour servir de cod
TTITLE7=a au cycle''
TTITLE8=Valse-improvisation sur le nom de Bach, FP.62  (extr. de Homma
TTITLE8=ge à Bach)
TTITLE9=Improvisations, FP.63 - N°1 en si mineur
TTITLE10=Improvisations, FP.63 - N°2 en la bémol majeur
TTITLE11=Improvisations, FP.63 - N°3 en si mineur
TTITLE12=Improvisations, FP.63 - N°4 en la bémol majeur
TTITLE13=Improvisations, FP.63 - N°5 en la mineur
TTITLE14=Improvisations, FP.63 - N°6 en si bémol majeur
TTITLE15=Improvisations, FP.63 - N°7 en ut majeur
TTITLE16=Improvisations, FP.63 - N°8 en la mineur
TTITLE17=Improvisations, FP.63 - N°9 en ré majeur
TTITLE18=Improvisations, FP.63 - N°10 en fa mafeur ''Éloge des gammes'
TTITLE18='
TTITLE19=Villageoises, petites pieces enfantines pour piano, FP. 65 - 
TTITLE19=Valse tyrolienne
TTITLE20=Villageoises, petites pieces enfantines pour piano, FP. 65 - 
TTITLE20=Staccato
TTITLE21=Villageoises, petites pieces enfantines pour piano, FP. 65 - 
TTITLE21=Rustique
TTITLE22=Villageoises, petites pieces enfantines pour piano, FP. 65 - 
TTITLE22=Polka
TTITLE23=Villageoises, petites pieces enfantines pour piano, FP. 65 - 
TTITLE23=Petite ronde
TTITLE24=Villageoises, petites pieces enfantines pour piano, FP. 65 - 
TTITLE24=Coda
TTITLE25=Feuillets d'Album, FP.68 - I. Ariette
TTITLE26=Feuillets d'Album, FP.68 - II. Rêve
TTITLE27=Feuillets d'Album, FP.68 - III. Gigue
TTITLE28=Presto en si bémol, FP.70
TTITLE29=Deux intermezzi, FP.71 - N°1 en ut majeur
TTITLE30=Deux intermezzi, FP.71 - N°2 en ré bémol majeur
TTITLE31=Humoresque, FP.72
TTITLE32=Badinage, FP.73
TTITLE33=Suite Française d'après Claude Gervaise  (XVIè siècle)   FP.8
TTITLE33=0 - I. Bransle de Bourgogne
TTITLE34=Suite Française d'après Claude Gervaise  (XVIè siècle)   FP.8
TTITLE34=0 - II. Pavane
TTITLE35=Suite Française d'après Claude Gervaise  (XVIè siècle)   FP.8
TTITLE35=0 - III. Petite marche militaire
TTITLE36=Suite Française d'après Claude Gervaise  (XVIè siècle)   FP.8
TTITLE36=0 - IV. Complainte
TTITLE37=Suite Française d'après Claude Gervaise  (XVIè siècle)   FP.8
TTITLE37=0 - V. Bransle de Champagne
TTITLE38=Suite Française d'après Claude Gervaise  (XVIè siècle)   FP.8
TTITLE38=0 - VI. Sicilienne
TTITLE39=Suite Française d'après Claude Gervaise  (XVIè siècle)   FP.8
TTITLE39=0 - VII. Carillon
EXTD=YEAR: 1968
EXTT0=
EXTT1=
EXTT2=
EXTT3=
EXTT4=
EXTT5=
EXTT6=
EXTT7=
EXTT8=
EXTT9=
EXTT10=
EXTT11=
EXTT12=
EXTT13=
EXTT14=
EXTT15=
EXTT16=
EXTT17=
EXTT18=
EXTT19=
EXTT20=
EXTT21=
EXTT22=
EXTT23=
EXTT24=
EXTT25=
EXTT26=
EXTT27=
EXTT28=
EXTT29=
EXTT30=
EXTT31=
EXTT32=
EXTT33=
EXTT34=
EXTT35=
EXTT36=
EXTT37=
EXTT38=
EXTT39=
PLAYORDER=
